<svg width="16" height="16" viewBox="0 0 16 16" fill="none" xmlns="http://www.w3.org/2000/svg">
<g clip-path="url(#clip0_641_390)">
<path d="M8 10.625C9.44975 10.625 10.625 9.44975 10.625 8C10.625 6.55025 9.44975 5.375 8 5.375C6.55025 5.375 5.375 6.55025 5.375 8C5.375 9.44975 6.55025 10.625 8 10.625Z" fill="url(#paint0_linear_641_390)" stroke="#F8AF18" stroke-width="0.1875" stroke-miterlimit="10"/>
<path d="M10.8793 5.12062L11.9775 4.0224M4.02252 11.9773L5.12075 10.8791M12.0747 7.99987H13.6215M2.3785 7.99987L3.92972 7.99987M8.00442 3.92517V2.37837M8.00442 13.6258V12.0746M5.12075 5.12062L4.02252 4.0224M11.9775 11.9773L10.8793 10.8791" stroke="#FBBF24" stroke-width="0.75" stroke-miterlimit="10" stroke-linecap="round"/>
</g>
<defs>
<linearGradient id="paint0_linear_641_390" x1="6.6875" y1="5.725" x2="9.3125" y2="10.275" gradientUnits="userSpaceOnUse">
<stop stop-color="#FBBF24"/>
<stop offset="0.5" stop-color="#FBBF24"/>
<stop offset="1" stop-color="#F59E0B"/>
</linearGradient>
<clipPath id="clip0_641_390">
<rect width="12" height="12" fill="white" transform="translate(2 2)"/>
</clipPath>
</defs>
</svg>
