<svg width="16" height="16" viewBox="0 0 16 16" fill="none" xmlns="http://www.w3.org/2000/svg">
    <g clip-path="url(#clip0_641_404)">
        <path d="M3.72519 9.81614C3.69644 9.80489 3.66644 9.79989 3.63519 9.80239C3.45644 9.81489 2.52269 10.6474 2.27769 11.2486C2.11144 11.6574 2.30894 12.1274 2.71894 12.2936C2.91623 12.3734 3.13709 12.3717 3.33317 12.289C3.52925 12.2064 3.68459 12.0493 3.76519 11.8524C3.94769 11.3986 3.99894 9.92864 3.72519 9.81614ZM5.25769 12.7574C5.22894 12.7449 5.19769 12.7399 5.16644 12.7424C4.98769 12.7549 4.05394 13.5874 3.80894 14.1899C3.64269 14.5986 3.84019 15.0686 4.25019 15.2349C4.44748 15.3146 4.66834 15.313 4.86442 15.2303C5.0605 15.1476 5.21584 14.9906 5.29644 14.7936C5.48144 14.3386 5.53144 12.8686 5.25769 12.7574ZM8.33894 10.3336C8.31019 10.3224 8.28019 10.3174 8.24894 10.3199C8.07019 10.3324 7.13644 11.1649 6.89144 11.7661C6.72519 12.1761 6.92269 12.6449 7.33269 12.8111C7.74269 12.9774 8.21144 12.7799 8.37769 12.3699C8.56269 11.9161 8.61269 10.4461 8.33894 10.3336ZM10.0377 13.0099C10.0089 12.9986 9.97894 12.9936 9.94769 12.9961C9.76894 13.0086 8.83394 13.8411 8.58894 14.4424C8.42269 14.8511 8.62019 15.3211 9.03019 15.4874C9.44019 15.6536 9.91019 15.4561 10.0764 15.0461C10.2614 14.5924 10.3114 13.1224 10.0377 13.0099ZM12.6927 10.4586C12.6639 10.4474 12.6327 10.4424 12.6014 10.4449C12.4227 10.4574 11.4877 11.2899 11.2427 11.8911C11.0764 12.3011 11.2739 12.7699 11.6839 12.9361C12.0939 13.1024 12.5627 12.9049 12.7289 12.4949C12.9152 12.0399 12.9652 10.5699 12.6927 10.4586Z"
              fill="#70B2E2"/>
        <path d="M13.4902 3.74883C13.489 3.74008 13.4902 3.73258 13.4902 3.72383C13.4902 2.58758 12.569 1.66508 11.4315 1.66508C11.2852 1.66508 11.1427 1.68133 11.0052 1.71008C10.5977 0.717578 9.62273 0.0175781 8.48273 0.0175781C7.62648 0.0175781 6.86398 0.412578 6.36398 1.02883C6.03226 0.859543 5.66514 0.771298 5.29273 0.771328C4.06148 0.771328 3.04898 1.71008 2.93148 2.91008C1.59148 2.98133 0.517729 4.07883 0.500229 5.44133C0.481479 6.86008 1.61773 8.02508 3.03648 8.04383C3.14648 8.04508 3.25523 8.03758 3.36148 8.02508C3.91023 9.18133 5.08648 9.98133 6.45148 9.98133C7.27523 9.98133 8.03023 9.69008 8.62023 9.20508C9.07148 9.53883 9.62773 9.73883 10.2327 9.73883C11.4727 9.73883 12.5165 8.90633 12.8415 7.77133C13.0465 7.83883 13.264 7.87758 13.4915 7.87758C14.6315 7.87758 15.5565 6.95383 15.5565 5.81258C15.5552 4.67258 14.6302 3.74883 13.4902 3.74883Z"
              fill="#E3EBEE"/>
        <path d="M14.7018 4.14258C15.1693 4.61508 14.8393 5.69883 14.5168 6.05133C13.8843 6.74508 12.7218 6.58258 12.2555 6.48258C12.1293 6.45508 12.1093 6.46508 12.068 6.49008C12.0318 6.51258 12.0143 6.54883 11.9743 6.63383C11.8243 6.95758 11.4368 7.58508 10.618 7.83758C9.76555 8.10133 8.96055 7.70008 8.5843 7.46008C8.4418 7.36883 8.43555 7.36758 8.37055 7.36758C8.30555 7.36758 8.24055 7.41633 8.16305 7.47758C7.82305 7.74508 7.04555 8.21758 5.8468 8.14883C4.6718 8.08133 3.9993 7.35633 3.7693 6.98508C3.72555 6.91383 3.6768 6.85383 3.62305 6.84758C3.56055 6.84133 3.49055 6.90633 3.4368 6.95758C2.9368 7.44508 1.3643 7.59008 0.841797 6.76133C1.3718 7.61258 2.1918 8.03383 3.03305 8.04383C3.14305 8.04508 3.2518 8.03758 3.35805 8.02508C3.9068 9.18133 5.08305 9.98133 6.44805 9.98133C7.2718 9.98133 8.0268 9.69008 8.6168 9.20508C9.06805 9.53883 9.6243 9.73883 10.2293 9.73883C11.4693 9.73883 12.513 8.90633 12.838 7.77133C13.043 7.83883 13.2605 7.87758 13.488 7.87758C14.628 7.87758 15.553 6.95383 15.553 5.81258C15.5543 5.20508 15.248 4.52008 14.7018 4.14258Z"
              fill="#B9CDD2"/>
    </g>
    <defs>
        <clipPath id="clip0_641_404">
            <rect width="16" height="16" fill="white"/>
        </clipPath>
    </defs>
</svg>
